<mxfile host="Electron" agent="Mozilla/5.0 (X11; Linux x86_64) AppleWebKit/537.36 (KHTML, like Gecko) draw.io/26.0.4 Chrome/128.0.6613.186 Electron/32.2.5 Safari/537.36" version="26.0.4">
  <diagram name="Page-1" id="gepz04h06iEn-5baZc7v">
    <mxGraphModel dx="928" dy="998" grid="1" gridSize="10" guides="1" tooltips="1" connect="1" arrows="1" fold="1" page="1" pageScale="1" pageWidth="850" pageHeight="1100" math="0" shadow="0">
      <root>
        <mxCell id="0" />
        <mxCell id="1" parent="0" />
        <mxCell id="j8V6ObhinkKyJS-13qz5-1" value="VPC" style="points=[[0,0],[0.25,0],[0.5,0],[0.75,0],[1,0],[1,0.25],[1,0.5],[1,0.75],[1,1],[0.75,1],[0.5,1],[0.25,1],[0,1],[0,0.75],[0,0.5],[0,0.25]];outlineConnect=0;gradientColor=none;html=1;whiteSpace=wrap;fontSize=12;fontStyle=0;container=1;pointerEvents=0;collapsible=0;recursiveResize=0;shape=mxgraph.aws4.group;grIcon=mxgraph.aws4.group_vpc2;strokeColor=#8C4FFF;fillColor=none;verticalAlign=top;align=left;spacingLeft=30;fontColor=#AAB7B8;dashed=0;" vertex="1" parent="1">
          <mxGeometry x="300" y="250" width="350" height="320" as="geometry" />
        </mxCell>
        <mxCell id="j8V6ObhinkKyJS-13qz5-2" value="Public subnet" style="points=[[0,0],[0.25,0],[0.5,0],[0.75,0],[1,0],[1,0.25],[1,0.5],[1,0.75],[1,1],[0.75,1],[0.5,1],[0.25,1],[0,1],[0,0.75],[0,0.5],[0,0.25]];outlineConnect=0;gradientColor=none;html=1;whiteSpace=wrap;fontSize=12;fontStyle=0;container=1;pointerEvents=0;collapsible=0;recursiveResize=0;shape=mxgraph.aws4.group;grIcon=mxgraph.aws4.group_security_group;grStroke=0;strokeColor=#7AA116;fillColor=#F2F6E8;verticalAlign=top;align=left;spacingLeft=30;fontColor=#248814;dashed=0;" vertex="1" parent="j8V6ObhinkKyJS-13qz5-1">
          <mxGeometry x="20" y="30" width="170" height="280" as="geometry" />
        </mxCell>
        <mxCell id="j8V6ObhinkKyJS-13qz5-17" value="Security group" style="fillColor=none;strokeColor=#DD3522;verticalAlign=top;fontStyle=0;fontColor=#DD3522;whiteSpace=wrap;html=1;" vertex="1" parent="j8V6ObhinkKyJS-13qz5-2">
          <mxGeometry x="17.5" y="40" width="135" height="220" as="geometry" />
        </mxCell>
        <mxCell id="j8V6ObhinkKyJS-13qz5-15" value="&lt;div&gt;&lt;b&gt;NAT Instance&lt;/b&gt;&lt;/div&gt;&lt;div&gt;IP: 12.34.56.78&lt;/div&gt;" style="sketch=0;outlineConnect=0;fontColor=#232F3E;gradientColor=none;fillColor=#ED7100;strokeColor=none;dashed=0;verticalLabelPosition=bottom;verticalAlign=top;align=center;html=1;fontSize=12;fontStyle=0;aspect=fixed;pointerEvents=1;shape=mxgraph.aws4.instance2;direction=south;" vertex="1" parent="j8V6ObhinkKyJS-13qz5-2">
          <mxGeometry x="45" y="70" width="80" height="80" as="geometry" />
        </mxCell>
        <mxCell id="j8V6ObhinkKyJS-13qz5-16" value="EIP" style="sketch=0;outlineConnect=0;fontColor=#232F3E;gradientColor=none;fillColor=#ED7100;strokeColor=none;dashed=0;verticalLabelPosition=bottom;verticalAlign=top;align=center;html=1;fontSize=12;fontStyle=0;aspect=fixed;pointerEvents=1;shape=mxgraph.aws4.elastic_ip_address;" vertex="1" parent="j8V6ObhinkKyJS-13qz5-2">
          <mxGeometry x="61" y="200" width="48" height="20" as="geometry" />
        </mxCell>
        <mxCell id="j8V6ObhinkKyJS-13qz5-7" value="Private subnet" style="points=[[0,0],[0.25,0],[0.5,0],[0.75,0],[1,0],[1,0.25],[1,0.5],[1,0.75],[1,1],[0.75,1],[0.5,1],[0.25,1],[0,1],[0,0.75],[0,0.5],[0,0.25]];outlineConnect=0;gradientColor=none;html=1;whiteSpace=wrap;fontSize=12;fontStyle=0;container=1;pointerEvents=0;collapsible=0;recursiveResize=0;shape=mxgraph.aws4.group;grIcon=mxgraph.aws4.group_security_group;grStroke=0;strokeColor=#00A4A6;fillColor=#E6F6F7;verticalAlign=top;align=left;spacingLeft=30;fontColor=#147EBA;dashed=0;" vertex="1" parent="j8V6ObhinkKyJS-13qz5-1">
          <mxGeometry x="220" y="30" width="120" height="280" as="geometry" />
        </mxCell>
        <mxCell id="j8V6ObhinkKyJS-13qz5-9" value="&lt;div&gt;IP: 10.0.0.10&lt;/div&gt;" style="sketch=0;outlineConnect=0;fontColor=#232F3E;gradientColor=none;fillColor=#ED7100;strokeColor=none;dashed=0;verticalLabelPosition=bottom;verticalAlign=top;align=center;html=1;fontSize=12;fontStyle=0;aspect=fixed;pointerEvents=1;shape=mxgraph.aws4.instance2;direction=south;" vertex="1" parent="j8V6ObhinkKyJS-13qz5-7">
          <mxGeometry x="20" y="40" width="80" height="80" as="geometry" />
        </mxCell>
        <mxCell id="j8V6ObhinkKyJS-13qz5-14" value="&lt;div&gt;IP: 10.0.0.20&lt;/div&gt;" style="sketch=0;outlineConnect=0;fontColor=#232F3E;gradientColor=none;fillColor=#ED7100;strokeColor=none;dashed=0;verticalLabelPosition=bottom;verticalAlign=top;align=center;html=1;fontSize=12;fontStyle=0;aspect=fixed;pointerEvents=1;shape=mxgraph.aws4.instance2;direction=south;" vertex="1" parent="j8V6ObhinkKyJS-13qz5-7">
          <mxGeometry x="20" y="160" width="80" height="80" as="geometry" />
        </mxCell>
        <mxCell id="j8V6ObhinkKyJS-13qz5-19" style="edgeStyle=orthogonalEdgeStyle;rounded=0;orthogonalLoop=1;jettySize=auto;html=1;" edge="1" parent="j8V6ObhinkKyJS-13qz5-1" source="j8V6ObhinkKyJS-13qz5-15" target="j8V6ObhinkKyJS-13qz5-9">
          <mxGeometry relative="1" as="geometry" />
        </mxCell>
        <mxCell id="j8V6ObhinkKyJS-13qz5-20" style="edgeStyle=orthogonalEdgeStyle;rounded=0;orthogonalLoop=1;jettySize=auto;html=1;" edge="1" parent="j8V6ObhinkKyJS-13qz5-1" source="j8V6ObhinkKyJS-13qz5-9" target="j8V6ObhinkKyJS-13qz5-15">
          <mxGeometry relative="1" as="geometry">
            <Array as="points">
              <mxPoint x="210" y="130" />
              <mxPoint x="210" y="160" />
            </Array>
          </mxGeometry>
        </mxCell>
        <mxCell id="j8V6ObhinkKyJS-13qz5-11" style="edgeStyle=orthogonalEdgeStyle;rounded=0;orthogonalLoop=1;jettySize=auto;html=1;" edge="1" parent="1" source="j8V6ObhinkKyJS-13qz5-13">
          <mxGeometry relative="1" as="geometry">
            <mxPoint x="277.6647616392529" y="395" as="sourcePoint" />
            <mxPoint x="360.0008863434921" y="395" as="targetPoint" />
          </mxGeometry>
        </mxCell>
        <mxCell id="j8V6ObhinkKyJS-13qz5-13" value="Server&lt;div&gt;IP: 50.60.70.10&lt;/div&gt;" style="sketch=0;outlineConnect=0;fontColor=#232F3E;gradientColor=none;fillColor=#232F3D;strokeColor=none;dashed=0;verticalLabelPosition=bottom;verticalAlign=top;align=center;html=1;fontSize=12;fontStyle=0;aspect=fixed;pointerEvents=1;shape=mxgraph.aws4.traditional_server;" vertex="1" parent="1">
          <mxGeometry x="200" y="356" width="45" height="78" as="geometry" />
        </mxCell>
      </root>
    </mxGraphModel>
  </diagram>
</mxfile>
